<svg width="580" height="400" xmlns="http://www.w3.org/2000/svg">
 <!-- Created with Method Draw - http://github.com/duopixel/Method-Draw/ -->
 <g>
  <title>background</title>
  <rect fill="#fff" id="canvas_background" height="402" width="582" y="-1" x="-1"/>
  <g display="none" overflow="visible" y="0" x="0" height="100%" width="100%" id="canvasGrid">
   <rect fill="url(#gridpattern)" stroke-width="0" y="0" x="0" height="100%" width="100%"/>
  </g>
 </g>
 <g>
  <title>Layer 1</title>
  <path id="svg_3" d="m332.42621,41.132793c-42.531009,7.831961 -56.656739,43.453924 -57.207924,63.82215c23.380519,1.692011 38.031797,-11.523622 43.992291,-19.253037c9.754701,-10.972436 12.113262,-26.418448 13.215633,-44.569113zm5.229853,70.359466c-30.751022,0 -47.927499,12.561901 -56.374737,12.702902c-9.729064,-0.756278 -38.031797,-12.138899 -54.541725,-12.318354c-57.810383,1.717648 -74.345947,64.539973 -73.628124,91.548061c4.704304,103.379321 67.795813,130.079771 78.101699,132.579333c8.2806,1.62792 36.16033,-12.754175 56.656739,-12.087626c22.393512,2.332925 38.057434,11.600531 47.030221,10.959618c11.395439,-0.794733 48.491503,-30.76384 59.68185,-76.999328c-22.534513,-19.060763 -36.455151,-36.352604 -37.698522,-52.734349c-0.58964,-7.421776 10.57507,-49.350327 28.354006,-61.130314c2.563653,-14.484641 -23.841976,-32.866036 -44.556295,-32.455851c-1.025461,-0.038455 -2.025286,-0.064091 -3.025111,-0.064091z" stroke-opacity="null" stroke-width="1.5" stroke="#000" fill="#FFAFCC"/>
 </g>
</svg>
